<svg width="851" height="851" viewBox="0 0 851 851" fill="none" xmlns="http://www.w3.org/2000/svg">
<rect width="851" height="851" fill="white"/>
<g clip-path="url(#clip0_244_1820)">
<path d="M747.066 331.059L805.25 331.06L805.215 518.174L795.336 518.171L747.09 518.196C746.668 493.361 747.059 467.365 747.051 442.433C726.816 442.006 704.516 442.326 684.211 442.43L684.187 518.174L626.363 518.182L626.383 331.062L684.219 331.063L684.207 396.576C704.887 396.899 726.312 396.61 747.055 396.61L747.066 331.059Z" fill="#181817"/>
<path d="M341.61 331.07L399.441 331.065L399.424 374.625L399.443 419.476C399.448 449.67 401.248 475.718 378.09 499.528C355.382 522.875 323.407 522.538 293.264 520.32C272.698 518.807 256.903 514.953 241.743 500.07C220.557 479.27 220.072 453.219 220.066 425.69L220.063 397.259L220.078 331.063L277.962 331.059L277.943 412.836L277.923 436.001C277.921 447.848 277.218 459.795 286.262 468.937C297.783 480.595 321.544 480.588 333.165 469.1C342.266 460.105 341.637 447.909 341.618 436.164L341.598 413.785L341.61 331.07Z" fill="#181817"/>
<path d="M506.348 328.127C525.562 326.998 552.789 329.632 568.449 341.168C583.449 352.217 588.855 369.414 591.625 386.892C573.824 387.34 554.32 386.944 536.387 386.944C535.477 381.314 533.363 375.289 529.504 370.86C521.594 361.586 501.293 359.875 492.187 367.942C485.504 373.865 487.004 383.344 495.074 387.298C501.805 390.667 509.633 391.8 516.973 393.51C552.621 401.815 597.492 411.91 597.086 457.786C596.961 473.896 590.398 489.287 578.863 500.537C560.047 518.87 533.898 521.634 508.996 521.261C490.035 521.101 464.57 517.538 450.094 504.745C436.277 492.535 428.699 470.971 427.461 452.828L482.434 452.803C483.758 461.623 485.746 469.382 492.766 476.43C505.797 489.609 540.254 487.546 540.902 464.698C541.078 458.497 535.187 451.902 529.84 449.329C522.187 445.649 513.953 443.601 505.727 441.709C475.699 434.797 436.359 423.059 434.512 385.993C433.719 372.418 438.469 359.102 447.676 349.093C462.82 332.54 485.223 329.114 506.348 328.127Z" fill="#181817"/>
<path d="M52.5945 331.067L110.425 331.064L110.419 472.047L200.639 472.049L200.62 518.166C184.363 518.375 167.634 518.172 151.345 518.172L52.5776 518.161L52.5945 331.067Z" fill="#181817"/>
</g>
<defs>
<clipPath id="clip0_244_1820">
<rect width="800" height="362" fill="white" transform="translate(26 244)"/>
</clipPath>
</defs>
</svg>
