<svg width="800" height="362" viewBox="0 0 800 362" fill="none" xmlns="http://www.w3.org/2000/svg">
<g clip-path="url(#clip0_244_1808)">
<path d="M721.066 87.0593L779.25 87.0597L779.215 274.174L769.336 274.171L721.09 274.196C720.668 249.361 721.059 223.365 721.051 198.433C700.816 198.006 678.516 198.326 658.211 198.43L658.187 274.174L600.363 274.182L600.383 87.0616L658.219 87.0632L658.207 152.576C678.887 152.899 700.312 152.61 721.055 152.61L721.066 87.0593Z" fill="#181817"/>
<path d="M315.61 87.0702L373.441 87.0647L373.424 130.625L373.443 175.476C373.448 205.67 375.248 231.718 352.09 255.528C329.382 278.875 297.407 278.538 267.264 276.32C246.698 274.807 230.903 270.953 215.743 256.07C194.557 235.27 194.072 209.219 194.066 181.69L194.063 153.259L194.078 87.0632L251.962 87.0593L251.943 168.836L251.923 192.001C251.921 203.848 251.218 215.795 260.262 224.937C271.783 236.595 295.544 236.588 307.165 225.1C316.266 216.105 315.637 203.909 315.618 192.164L315.598 169.785L315.61 87.0702Z" fill="#181817"/>
<path d="M480.348 84.1269C499.562 82.998 526.789 85.6316 542.449 97.1675C557.449 108.217 562.855 125.414 565.625 142.892C547.824 143.34 528.32 142.944 510.387 142.944C509.477 137.314 507.363 131.289 503.504 126.86C495.594 117.586 475.293 115.875 466.187 123.942C459.504 129.865 461.004 139.344 469.074 143.298C475.805 146.667 483.633 147.8 490.973 149.51C526.621 157.815 571.492 167.91 571.086 213.786C570.961 229.896 564.398 245.287 552.863 256.537C534.047 274.87 507.898 277.634 482.996 277.261C464.035 277.101 438.57 273.538 424.094 260.745C410.277 248.535 402.699 226.971 401.461 208.828L456.434 208.803C457.758 217.623 459.746 225.382 466.766 232.43C479.797 245.609 514.254 243.546 514.902 220.698C515.078 214.497 509.187 207.902 503.84 205.329C496.187 201.649 487.953 199.601 479.727 197.709C449.699 190.797 410.359 179.059 408.512 141.993C407.719 128.418 412.469 115.102 421.676 105.093C436.82 88.5404 459.223 85.1141 480.348 84.1269Z" fill="#181817"/>
<path d="M26.5945 87.0667L84.4254 87.0635L84.4188 228.047L174.639 228.049L174.62 274.166C158.363 274.375 141.634 274.172 125.345 274.172L26.5776 274.161L26.5945 87.0667Z" fill="#181817"/>
</g>
<defs>
<clipPath id="clip0_244_1808">
<rect width="800" height="362" fill="white"/>
</clipPath>
</defs>
</svg>
